# Blender v2.79 (sub 0) OBJ File: 'inbox.blend'
# www.blender.org
o Cube_Cube.001
v -0.750000 0.000000 0.750000
v -0.750000 0.200000 0.750000
v -0.750000 0.000000 -0.750000
v -0.750000 0.200000 -0.750000
v 0.750000 0.000000 0.750000
v 0.750000 0.200000 0.750000
v 0.750000 0.000000 -0.750000
v 0.750000 0.200000 -0.750000
v 0.750000 0.200000 0.750000
v -0.750000 0.200000 0.750000
v 0.750000 0.200000 -0.750000
v -0.750000 0.200000 -0.750000
v 0.562500 0.200000 0.562500
v -0.562500 0.200000 0.562500
v 0.562500 0.200000 -0.562500
v -0.562500 0.200000 -0.562500
v 0.562500 0.100000 0.562500
v -0.562500 0.100000 0.562500
v 0.562500 0.100000 -0.562500
v -0.562500 0.100000 -0.562500
vt 0.000050 0.500045
vt 0.499950 0.999945
vt 0.000050 0.999945
vt 0.000050 0.500045
vt 0.499950 0.999945
vt 0.000050 0.999945
vt 0.499950 0.999945
vt 0.000050 0.500045
vt 0.499950 0.500045
vt 0.499950 0.999945
vt 0.000050 0.500045
vt 0.499950 0.500045
vt 0.499950 0.000050
vt 0.000050 0.000050
vt 0.500050 0.999950
vt 0.937462 0.937463
vt 0.999950 0.999950
vt 0.000041 0.833315
vt 0.499959 0.500036
vt 0.499959 0.833315
vt 0.999950 0.500050
vt 0.562537 0.562537
vt 0.500050 0.500050
vt 0.562537 0.937463
vt 0.937462 0.562537
vt 0.000050 0.499950
vt 0.499950 0.000050
vt 0.499950 0.499950
vt 0.499959 0.500036
vt 0.000041 0.833315
vt 0.000041 0.500036
vt 0.000041 0.833315
vt 0.499959 0.500036
vt 0.499959 0.833315
vt 0.499959 0.500036
vt 0.000041 0.833315
vt 0.000041 0.500036
vt 0.499950 0.500045
vt 0.499950 0.500045
vt 0.000050 0.999945
vt 0.000050 0.999945
vt 0.000041 0.500036
vt 0.000050 0.000050
vt 0.499959 0.833315
vt 0.000041 0.500036
vt 0.499959 0.833315
vn -1.0000 0.0000 0.0000
vn 0.0000 0.0000 -1.0000
vn 1.0000 0.0000 0.0000
vn 0.0000 0.0000 1.0000
vn 0.0000 -1.0000 0.0000
vn 0.0000 1.0000 0.0000
s off
f 2/1/1 3/2/1 1/3/1
f 4/4/2 7/5/2 3/6/2
f 8/7/3 5/8/3 7/9/3
f 6/10/4 1/11/4 5/12/4
f 7/13/5 1/11/5 3/14/5
f 12/15/6 15/16/6 11/17/6
f 14/18/3 20/19/3 16/20/3
f 9/21/6 14/22/6 10/23/6
f 10/23/6 16/24/6 12/15/6
f 11/17/6 13/25/6 9/21/6
f 20/26/6 17/27/6 19/28/6
f 15/29/1 17/30/1 13/31/1
f 16/32/4 19/33/4 15/34/4
f 13/35/2 18/36/2 14/37/2
f 2/1/1 4/38/1 3/2/1
f 4/4/2 8/39/2 7/5/2
f 8/7/3 6/40/3 5/8/3
f 6/10/4 2/41/4 1/11/4
f 7/13/5 5/12/5 1/11/5
f 12/15/6 16/24/6 15/16/6
f 14/18/3 18/42/3 20/19/3
f 9/21/6 13/25/6 14/22/6
f 10/23/6 14/22/6 16/24/6
f 11/17/6 15/16/6 13/25/6
f 20/26/6 18/43/6 17/27/6
f 15/29/1 19/44/1 17/30/1
f 16/32/4 20/45/4 19/33/4
f 13/35/2 17/46/2 18/36/2
