# Blender v2.79 (sub 0) OBJ File: 'map0.blend'
# www.blender.org
mtllib map0.mtl
o Plane
v -8.000000 0.000000 8.000000
v -8.000000 0.000000 -8.000000
v -8.000000 16.000000 8.000000
v -8.000000 16.000000 -8.000000
v -8.000000 0.000000 -8.000000
v -8.000000 0.000000 -24.000000
v -8.000000 16.000000 -8.000000
v -8.000000 16.000000 -24.000000
v -8.000000 0.000000 -24.000000
v -8.000000 0.000000 -40.000000
v -8.000000 16.000000 -24.000000
v -8.000000 16.000000 -40.000000
v -8.000000 0.000000 -40.000000
v 8.000000 0.000000 -40.000000
v -8.000000 16.000000 -40.000000
v 8.000000 16.000000 -40.000000
v 8.000000 0.000000 -40.000000
v 24.000000 0.000000 -40.000000
v 8.000000 16.000000 -40.000000
v 24.000000 16.000000 -40.000000
v 24.000000 0.000000 -40.000000
v 40.000000 0.000000 -40.000000
v 24.000000 16.000000 -40.000000
v 40.000000 16.000000 -40.000000
v 40.000000 0.000000 -40.000000
v 40.000000 0.000000 -24.000000
v 40.000000 16.000000 -40.000000
v 40.000000 16.000000 -24.000000
v 40.000000 0.000000 -24.000000
v 40.000000 0.000000 -8.000000
v 40.000000 16.000000 -24.000000
v 40.000000 16.000000 -8.000000
v 40.000000 0.000000 -8.000000
v 40.000000 0.000000 8.000000
v 40.000000 16.000000 -8.000000
v 40.000000 16.000000 8.000000
v 40.000000 0.000000 8.000000
v 24.000000 0.000000 8.000000
v 40.000000 16.000000 8.000000
v 24.000000 16.000000 8.000000
v 24.000000 0.000000 8.000000
v 24.000000 0.000000 -8.000000
v 24.000000 16.000000 8.000000
v 24.000000 16.000000 -8.000000
v 24.000000 0.000000 -8.000000
v 8.000000 0.000000 -8.000001
v 24.000000 16.000000 -8.000000
v 8.000000 16.000000 -8.000001
v 8.000001 0.000000 -8.000000
v 7.999999 0.000000 8.000000
v 8.000001 16.000000 -8.000000
v 7.999999 16.000000 8.000000
v 8.000000 0.000000 8.000000
v -8.000000 0.000000 8.000000
v 8.000000 16.000000 8.000000
v -8.000000 16.000000 8.000000
vt 0.999900 0.000100
vt 0.000100 0.999900
vt 0.000100 0.000100
vt 0.999900 0.000100
vt 0.000100 0.999900
vt 0.000100 0.000100
vt 0.999900 0.000100
vt 0.000100 0.999900
vt 0.000100 0.000100
vt 0.999900 0.000100
vt 0.000100 0.999900
vt 0.000100 0.000100
vt 0.999900 0.000100
vt 0.000100 0.999900
vt 0.000100 0.000100
vt 0.999900 0.000100
vt 0.000100 0.999900
vt 0.000100 0.000100
vt 0.999900 0.000100
vt 0.000100 0.999900
vt 0.000100 0.000100
vt 0.999900 0.000100
vt 0.000100 0.999900
vt 0.000100 0.000100
vt 0.999900 0.000100
vt 0.000100 0.999900
vt 0.000100 0.000100
vt 0.999900 0.000100
vt 0.000100 0.999900
vt 0.000100 0.000100
vt 0.999900 0.000100
vt 0.000100 0.999900
vt 0.000100 0.000100
vt 0.999900 0.000100
vt 0.000100 0.999900
vt 0.000100 0.000100
vt 0.999900 0.000100
vt 0.000100 0.999900
vt 0.000100 0.000100
vt 0.999900 0.000100
vt 0.000100 0.999900
vt 0.000100 0.000100
vt 0.999900 0.999900
vt 0.999900 0.999900
vt 0.999900 0.999900
vt 0.999900 0.999900
vt 0.999900 0.999900
vt 0.999900 0.999900
vt 0.999900 0.999900
vt 0.999900 0.999900
vt 0.999900 0.999900
vt 0.999900 0.999900
vt 0.999900 0.999900
vt 0.999900 0.999900
vt 0.999900 0.999900
vt 0.999900 0.999900
vn 1.0000 0.0000 -0.0000
vn 0.0000 0.0000 1.0000
vn -1.0000 0.0000 0.0000
vn -0.0000 0.0000 -1.0000
usemtl None
s off
f 2/1/1 3/2/1 1/3/1
f 6/4/1 7/5/1 5/6/1
f 10/7/1 11/8/1 9/9/1
f 14/10/2 15/11/2 13/12/2
f 18/13/2 19/14/2 17/15/2
f 22/16/2 23/17/2 21/18/2
f 26/19/3 27/20/3 25/21/3
f 30/22/3 31/23/3 29/24/3
f 34/25/3 35/26/3 33/27/3
f 38/28/4 39/29/4 37/30/4
f 42/31/1 43/32/1 41/33/1
f 46/34/4 47/35/4 45/36/4
f 50/37/3 51/38/3 49/39/3
f 54/40/4 55/41/4 53/42/4
f 2/1/1 4/43/1 3/2/1
f 6/4/1 8/44/1 7/5/1
f 10/7/1 12/45/1 11/8/1
f 14/10/2 16/46/2 15/11/2
f 18/13/2 20/47/2 19/14/2
f 22/16/2 24/48/2 23/17/2
f 26/19/3 28/49/3 27/20/3
f 30/22/3 32/50/3 31/23/3
f 34/25/3 36/51/3 35/26/3
f 38/28/4 40/52/4 39/29/4
f 42/31/1 44/53/1 43/32/1
f 46/34/4 48/54/4 47/35/4
f 50/37/3 52/55/3 51/38/3
f 54/40/4 56/56/4 55/41/4
